<svg width="92" height="92" viewBox="0 0 92 92" fill="none" xmlns="http://www.w3.org/2000/svg">
<rect y="0.242188" width="91.5618" height="91.5618" rx="45.7809" fill="#FFE450"/>
<path d="M32.2178 42.0234C32.9654 44.5044 33.8704 46.8315 34.854 49.0762C36.5459 53.0966 37.6869 55.2232 39.2643 57.8618C41.1923 61.0122 43.3206 64.5995 46.8224 66.923C49.3799 68.6163 52.4918 69.4827 55.4821 69.4827C59.6957 69.4827 63.3155 67.6318 65.6405 65.4623C67.9226 63.3357 70.8771 59.2365 70.8771 51.2386C70.8771 48.4819 72.0968 46.1155 73.0018 44.2252C73.0018 44.1858 73.0411 44.107 73.1198 43.9495C73.4739 43.1619 73.9067 42.138 73.9067 41.1141C73.9067 40.3658 73.71 39.4995 73.1985 38.7512C72.4116 37.4123 70.9951 36.9397 69.6931 36.9397C66.6635 36.9397 64.5746 39.0663 63.5122 41.2358L63.1581 41.9447C62.7253 41.3146 62.2925 40.6451 61.9384 40.0544C60.8367 38.1247 60.2072 36.8251 59.6563 35.1675C59.2235 33.868 58.8694 32.3715 58.6333 31.1471C57.9644 27.2842 56.8628 26.024 55.0493 25.5514C53.7115 25.197 52.1377 25.4727 50.993 26.2209C50.2097 24.4488 48.8719 23.6611 47.0978 23.6611C44.5796 23.6611 42.294 25.3151 42.294 28.1148C42.294 28.4692 42.3333 28.8236 42.3727 29.2568C42.0579 29.1781 41.7038 29.1387 41.3497 29.1387C38.6348 29.1387 36.6246 31.029 36.6246 33.5923C36.6246 34.183 36.7033 34.8525 36.9 35.6401C36.6639 35.6007 36.4279 35.6007 36.1918 35.6007C34.854 35.6795 33.6343 36.1915 32.7651 37.2547C31.9031 38.2786 31.5489 39.8539 32.2178 42.0234Z" fill="#1F1F1A"/>
<path d="M34.4597 41.3153C34.1056 40.1732 34.145 39.3068 34.5778 38.7555C35.0106 38.2435 35.6008 38.0073 36.309 37.9679C37.5287 37.9285 38.0009 38.7949 38.7091 41.0396C39.1419 42.4573 40.0075 44.5087 40.519 45.6508C41.1879 47.0291 42.1322 48.88 42.565 49.5137C42.9191 50.065 43.2339 50.2225 43.588 50.2225C44.2175 50.2225 44.6897 49.8681 44.6897 49.238C44.6897 48.8836 44.3356 48.2929 44.1389 47.9384C43.7847 47.269 43.0372 45.93 42.5257 44.7879C41.9748 43.5278 41.3453 41.9525 40.8338 40.5312C40.519 39.7042 40.1649 38.5228 39.8108 37.3414C39.2599 35.5298 38.9845 34.4272 38.9845 33.5966C38.9845 32.3364 39.9288 31.5094 41.3453 31.5094C42.3683 31.5094 43.0372 32.0213 43.47 33.8723C43.8241 35.5656 44.4536 38.3259 45.3586 40.4918C45.9488 41.9096 46.8144 43.8034 47.3259 44.7486C47.6407 45.2999 47.9948 45.7725 47.9948 45.9694C47.9948 46.245 47.4833 46.6782 47.0505 47.269C46.775 47.6234 46.657 47.8597 46.657 48.1353C46.657 48.3716 46.8144 48.6079 47.0505 48.923C47.2865 49.238 47.5226 49.5531 47.798 49.5531C47.9948 49.5531 48.1128 49.4743 48.2308 49.3168C49.4506 47.7809 50.7883 46.7176 52.3264 45.8477C54.1363 44.8237 55.9892 44.3118 57.445 43.9967C58.1532 43.8392 58.3499 43.6817 58.3499 43.2879C58.3499 42.8153 57.9958 42.5397 57.5237 42.5003C57.1695 42.4609 56.8548 42.5003 56.3039 42.5397C55.9105 42.579 55.7137 42.3821 55.4777 41.8702C54.7694 40.3737 53.3923 37.8497 52.5661 34.6205C52.2119 33.2422 51.8972 31.7851 51.7004 29.8912C51.5824 29.0248 51.7398 28.7098 52.1726 28.3159C52.7234 27.8434 53.7071 27.6465 54.4547 27.8434C55.3596 28.0797 55.8318 28.7885 56.3039 31.5488C56.54 32.8483 56.9335 34.5023 57.4056 35.9236C57.9958 37.7352 58.7434 39.2352 59.8844 41.2437C60.514 42.3463 61.3009 43.4884 62.1271 44.5946C61.9698 45.0672 61.6943 45.3822 60.7894 46.1305C59.8844 46.8787 58.9795 47.6663 58.1532 49.1234C57.563 50.1867 57.2876 51.3682 57.2876 52.1558C57.2876 52.904 57.445 53.0615 57.9171 53.0615C58.7434 53.0615 59.4123 52.904 59.4516 52.5496C59.6483 51.1319 59.8844 50.2261 60.6713 49.1592C61.1435 48.5685 61.9698 47.8203 62.6386 47.2296C63.8977 46.2057 64.3305 45.615 64.7633 44.1579C64.9601 43.4884 65.1961 42.8583 65.5109 42.2676C66.2585 40.8892 67.5962 39.314 69.6852 39.314C70.354 39.314 70.9049 39.5109 71.259 40.0622C71.4557 40.3773 71.5344 40.8105 71.5344 41.1255C71.5344 41.8344 71.0229 42.8189 70.7869 43.2915C69.9212 45.1424 68.5048 47.9814 68.5048 51.25C68.5048 58.3816 65.9866 61.9294 64.0158 63.741C62.0878 65.5525 59.0546 67.1313 55.4741 67.1313C52.9166 67.1313 50.2768 66.3831 48.1128 64.9653C45.0832 62.9569 43.191 59.8029 41.263 56.6524C39.7285 54.0926 38.6662 52.0806 37.0101 48.1819C36.0765 45.9228 35.2073 43.7175 34.4597 41.3153Z" fill="#FFE450"/>
<path d="M44.5801 28.1155C44.5801 26.619 45.9572 26.0283 47.0982 26.0283C48.318 26.0283 48.7508 26.619 49.0655 27.8792C49.3409 28.9031 49.459 29.8483 49.577 30.9509C49.7344 32.0536 50.2853 34.5776 50.4426 35.2077C51.0328 37.3736 52.2132 39.937 53.6297 43.0087C52.8034 43.2844 51.7017 43.7569 50.9541 44.1507C50.0098 44.6627 49.8131 44.6627 49.4196 43.9145C48.5934 42.3786 48.0032 41.2366 47.4917 39.894C47.0589 38.7913 46.6261 37.5312 46.272 36.0705C45.6818 33.5895 45.6031 32.8806 45.1309 31.735C44.8555 30.5571 44.5801 29.1 44.5801 28.1155Z" fill="#FFE450"/>
<path d="M30.4872 54.4934C29.6538 55.0089 25.2363 57.3252 24.2384 57.694C23.5266 57.9589 22.7539 57.8945 22.2997 56.5483C21.7417 54.8836 22.525 54.4898 23.641 54.0566C24.6282 53.6735 28.7238 52.1914 29.6753 51.9336C30.3442 51.7546 30.8092 51.9801 31.1311 52.7857C31.4852 53.6699 31.242 54.0244 30.4872 54.4934Z" fill="#1F1F1A"/>
<path d="M26.8462 45.1089C25.6586 45.1411 20.7261 44.9299 19.5993 44.8189C18.6193 44.7223 18.2222 44.2891 18.3295 42.8678C18.444 41.3427 19.0378 41.2496 19.9999 41.3427C21.1159 41.4501 26.2846 42.2914 27.1073 42.5456C27.9586 42.8105 28.0766 43.1972 27.9729 43.9418C27.8405 44.9084 27.4042 45.091 26.8462 45.1089Z" fill="#1F1F1A"/>
<path d="M27.4583 35.1137C26.0991 34.6841 22.0643 32.2389 21.0127 31.6088C20.0612 31.0359 19.9396 30.5204 20.6014 29.2638C21.188 28.154 21.839 27.9606 22.8047 28.4619C23.9243 29.0454 27.8768 32.1243 28.6315 32.7329C29.3612 33.32 29.2611 33.6243 28.8783 34.3797C28.4956 35.1351 28.1379 35.3285 27.4583 35.1137Z" fill="#1F1F1A"/>
</svg>
